<?xml version="1.0" standalone="no"?>
<!DOCTYPE svg PUBLIC "-//W3C//DTD SVG 20010904//EN"
 "http://www.w3.org/TR/2001/REC-SVG-20010904/DTD/svg10.dtd">
<svg version="1.0" xmlns="http://www.w3.org/2000/svg"
 width="270.000000pt" height="270.000000pt" viewBox="0 0 270.000000 270.000000"
 preserveAspectRatio="xMidYMid meet">
<metadata>
Created by potrace 1.11, written by Peter Selinger 2001-2013
</metadata>
<g transform="translate(0.000000,270.000000) scale(0.100000,-0.100000)"
fill="#000000" stroke="none">
<path d="M302 1864 c-116 -31 -206 -108 -261 -224 l-36 -75 -2 -349 -1 -349
28 -29 c37 -37 90 -39 125 -3 14 13 25 34 26 47 0 13 1 165 2 339 l2 316 30
49 c45 71 102 103 195 108 93 5 103 9 125 50 20 37 16 70 -13 106 -16 20 -30
23 -93 26 -42 2 -97 -3 -127 -12z"/>
<path d="M930 1869 c-61 -11 -197 -81 -242 -124 -53 -51 -103 -114 -127 -163
-63 -125 -71 -312 -18 -437 64 -153 187 -266 347 -316 70 -22 212 -25 280 -7
54 15 141 58 183 90 l37 30 0 -32 c0 -79 63 -121 133 -89 44 20 48 44 47 329
-1 286 -8 337 -55 430 -70 138 -211 251 -360 287 -37 9 -179 10 -225 2z m233
-196 c66 -24 156 -107 192 -178 26 -51 29 -69 29 -149 1 -78 -3 -99 -26 -149
-32 -69 -99 -137 -170 -174 -46 -23 -65 -27 -148 -27 -77 -1 -104 4 -142 21
-71 32 -144 106 -179 180 -29 60 -31 71 -27 156 2 78 7 101 32 147 30 58 98
130 146 155 83 43 203 50 293 18z"/>
<path d="M2015 1856 c-174 -58 -303 -188 -356 -360 -37 -120 -26 -274 29 -386
64 -132 198 -243 346 -285 94 -27 240 -17 336 23 41 18 87 42 101 54 15 13 38
32 51 43 74 61 136 164 164 269 20 76 12 238 -15 307 -62 162 -193 287 -350
335 -82 25 -81 26 -81 -76 0 -78 3 -91 18 -96 95 -29 179 -100 225 -189 28
-54 31 -69 32 -150 0 -82 -3 -96 -33 -157 -35 -71 -96 -133 -167 -171 -34 -18
-57 -22 -145 -22 -94 0 -110 3 -155 27 -64 33 -130 98 -160 158 -89 177 -10
403 169 481 l56 24 0 93 c0 101 2 99 -65 78z"/>
<path d="M2134 1780 l0 -90 28 0 28 0 0 90 0 90 -28 0 -28 0 0 -90z"/>
</g>
</svg>
